<?xml version="1.0" encoding="utf-8"?>
<!-- Generator: Adobe Illustrator 24.0.3, SVG Export Plug-In . SVG Version: 6.00 Build 0)  -->
<svg version="1.1" xmlns="http://www.w3.org/2000/svg" xmlns:xlink="http://www.w3.org/1999/xlink" x="0px" y="0px"
	 viewBox="0 0 3216.8 829.5" style="enable-background:new 0 0 3216.8 829.5;" xml:space="preserve">
<style type="text/css">
	.st0{display:none;}
	.st1{display:inline;fill:#2E2E2E;}
	.st2{fill:#2E2E2E;}
	.st3{fill:#FFFFFF;}
</style>
<g id="Layer_2" class="st0">
	<rect class="st1" width="3216.8" height="829.5"/>
</g>
<g id="Layer_1">
	<g>
		<g>
			<g>
				<g>
					<polygon class="st3" points="106.8,91.6 6.8,80.8 -52.6,162 -12,254 88.1,264.9 147.5,183.7 					"/>
				</g>
				<g>
					<path class="st3" d="M-9.3,266.4l92,10l37.4,84.7l-54.6,74.7l-92-10l-37.4-84.7L-9.3,266.4 M-12.5,259l-59.4,81.2l40.6,92.1
						l100.1,10.8l59.4-81.2l-40.6-92.1L-12.5,259L-12.5,259z"/>
				</g>
			</g>
			<g>
				<g>
					<path class="st3" d="M173.6,15.7l92,10l37.4,84.7L248.3,185l-92-10l-37.4-84.7L173.6,15.7 M170.3,8.3l-59.4,81.2l40.6,92.1
						l100.1,10.8l59.4-81.2l-40.6-92.1L170.3,8.3L170.3,8.3z"/>
				</g>
				<g>
					<path class="st3" d="M154.3,193.9l92,10l37.4,84.7L229,363.3l-92-10l-37.4-84.7L154.3,193.9 M151,186.5l-59.4,81.2l40.6,92.1
						l100.1,10.8l59.4-81.2l-40.6-92.1L151,186.5L151,186.5z"/>
				</g>
				<g>
					<polygon class="st3" points="231.8,375.7 131.7,364.8 72.3,446 112.9,538.1 213,548.9 272.4,467.7 					"/>
				</g>
			</g>
			<g>
				<g>
					<path class="st3" d="M317.8,121.5l92,10l37.4,84.7l-54.6,74.7l-92-10l-37.4-84.7L317.8,121.5 M314.5,114.1l-59.4,81.2
						l40.6,92.1l100.1,10.8l59.4-81.2l-40.6-92.1L314.5,114.1L314.5,114.1z"/>
				</g>
				<g>
					<path class="st3" d="M298.5,299.7l92,10l37.4,84.7l-54.6,74.7l-92-10l-37.4-84.7L298.5,299.7 M295.2,292.3l-59.4,81.2
						l40.6,92.1l100.1,10.8l59.4-81.2l-40.6-92.1L295.2,292.3L295.2,292.3z"/>
				</g>
			</g>
			<g>
				<g>
					<polygon class="st3" points="539.5,409 439.5,398.1 380.1,479.4 420.7,571.4 520.8,582.3 580.2,501 					"/>
				</g>
			</g>
			<g>
				<g>
					<polygon class="st3" points="703.1,336.5 603,325.7 543.6,406.9 584.2,499 684.3,509.8 743.7,428.6 					"/>
				</g>
			</g>
			<g>
				<g>
					<polygon class="st3" points="847.3,442.3 747.2,431.5 687.8,512.7 728.5,604.8 828.5,615.6 887.9,534.4 					"/>
				</g>
			</g>
			<g>
				<g>
					<polygon class="st3" points="1010.8,369.8 910.8,359 851.4,440.2 892,532.3 992.1,543.1 1051.5,461.9 					"/>
				</g>
			</g>
			<g>
				<g>
					<polygon class="st3" points="1174.4,297.4 1074.3,286.5 1014.9,367.8 1055.6,459.8 1155.6,470.7 1215,389.4 					"/>
				</g>
				<g>
					<polygon class="st3" points="1155.1,475.6 1055,464.8 995.6,546 1036.3,638.1 1136.3,648.9 1195.7,567.7 					"/>
				</g>
			</g>
			<g>
				<g>
					<polygon class="st3" points="1318.6,403.2 1218.6,392.3 1159.1,473.6 1199.8,565.6 1299.8,576.5 1359.3,495.2 					"/>
				</g>
			</g>
			<g>
				<g>
					<polygon class="st3" points="1482.1,330.7 1382.1,319.9 1322.7,401.1 1363.3,493.2 1463.4,504 1522.8,422.8 					"/>
				</g>
				<g>
					<polygon class="st3" points="1462.8,509 1362.8,498.1 1303.4,579.4 1344,671.4 1444.1,682.3 1503.5,601 					"/>
				</g>
			</g>
			<g>
				<g>
					<polygon class="st3" points="1626.4,436.5 1526.3,425.7 1466.9,506.9 1507.6,599 1607.6,609.8 1667,528.6 					"/>
				</g>
			</g>
			<g>
				<g>
					<polygon class="st3" points="1789.9,364 1689.9,353.2 1630.5,434.4 1671.1,526.5 1771.2,537.3 1830.6,456.1 					"/>
				</g>
				<g>
					<polygon class="st3" points="1770.6,542.3 1670.6,531.5 1611.2,612.7 1651.8,704.8 1751.8,715.6 1811.3,634.4 					"/>
				</g>
			</g>
			<g>
				<g>
					<polygon class="st3" points="1953.5,291.6 1853.4,280.7 1794,362 1834.6,454 1934.7,464.9 1994.1,383.6 					"/>
				</g>
				<g>
					<polygon class="st3" points="1934.2,469.8 1834.1,459 1774.7,540.2 1815.3,632.3 1915.4,643.1 1974.8,561.9 					"/>
				</g>
			</g>
			<g>
				<g>
					<g>
						<path class="st3" d="M2020.2,215.7l92,10l37.4,84.7L2095,385l-92-10l-37.4-84.7L2020.2,215.7 M2016.9,208.3l-59.4,81.2
							l40.6,92.1l100.1,10.8l59.4-81.2l-40.6-92.1L2016.9,208.3L2016.9,208.3z"/>
					</g>
				</g>
				<g>
					<g>
						<path class="st3" d="M2000.9,393.9l92,10l37.4,84.7l-54.6,74.7l-92-10l-37.4-84.7L2000.9,393.9 M1997.6,386.5l-59.4,81.2
							l40.6,92.1l100.1,10.8l59.4-81.2l-40.6-92.1L1997.6,386.5L1997.6,386.5z"/>
					</g>
				</g>
				<g>
					<polygon class="st3" points="2078.4,575.6 1978.3,564.8 1918.9,646 1959.6,738.1 2059.6,748.9 2119,667.7 					"/>
				</g>
			</g>
			<g>
				<g>
					<path class="st3" d="M2183.7,143.2l92,10l37.4,84.7l-54.6,74.7l-92-10l-37.4-84.7L2183.7,143.2 M2180.5,135.8l-59.4,81.2
						l40.6,92.1l100.1,10.8l59.4-81.2l-40.6-92.1L2180.5,135.8L2180.5,135.8z"/>
				</g>
				<g>
					<path class="st3" d="M2164.4,321.4l92,10l37.4,84.7l-54.6,74.7l-92-10l-37.4-84.7L2164.4,321.4 M2161.2,314.1l-59.4,81.2
						l40.6,92.1l100.1,10.8l59.4-81.2l-40.6-92.1L2161.2,314.1L2161.2,314.1z"/>
				</g>
				<g>
					<polygon class="st3" points="2241.9,503.2 2141.9,492.3 2082.5,573.6 2123.1,665.6 2223.2,676.5 2282.6,595.2 					"/>
				</g>
			</g>
			<g>
				<g>
					<polygon class="st3" points="2424.8,252.4 2324.7,241.6 2265.3,322.8 2305.9,414.9 2406,425.7 2465.4,344.5 					"/>
				</g>
				<g>
					<path class="st3" d="M2308.7,427.2l92,10l37.4,84.7l-54.6,74.7l-92-10L2254,502L2308.7,427.2 M2305.4,419.9l-59.4,81.2
						l40.6,92.1l100.1,10.8l59.4-81.2l-40.6-92.1L2305.4,419.9L2305.4,419.9z"/>
				</g>
				<g>
					<polygon class="st3" points="2386.2,609 2286.1,598.1 2226.7,679.4 2267.3,771.4 2367.4,782.3 2426.8,701 					"/>
				</g>
			</g>
			<g>
				<g>
					<polygon class="st3" points="2569,358.2 2468.9,347.4 2409.5,428.6 2450.2,520.7 2550.2,531.5 2609.6,450.3 					"/>
				</g>
				<g>
					<polygon class="st3" points="2549.7,536.5 2449.6,525.7 2390.2,606.9 2430.9,698.9 2530.9,709.8 2590.3,628.6 					"/>
				</g>
			</g>
			<g>
				<g>
					<polygon class="st3" points="2732.5,285.7 2632.5,274.9 2573.1,356.1 2613.7,448.2 2713.8,459 2773.2,377.8 					"/>
				</g>
				<g>
					<path class="st3" d="M2616.4,460.6l92,10l37.4,84.7l-54.6,74.7l-92-10l-37.4-84.7L2616.4,460.6 M2613.2,453.2l-59.4,81.2
						l40.6,92.1l100.1,10.8l59.4-81.2l-40.6-92.1L2613.2,453.2L2613.2,453.2z"/>
				</g>
				<g>
					<path class="st3" d="M2597.1,638.8l92,10l37.4,84.7l-54.6,74.7l-92-10l-37.4-84.7L2597.1,638.8 M2593.9,631.4l-59.4,81.2
						l40.6,92.1l100.1,10.8l59.4-81.2l-40.6-92.1L2593.9,631.4L2593.9,631.4z"/>
				</g>
			</g>
			<g>
				<g>
					<polygon class="st3" points="2876.8,391.5 2776.7,380.7 2717.3,461.9 2758,554 2858,564.8 2917.4,483.6 					"/>
				</g>
				<g>
					<path class="st3" d="M2760.7,566.4l92,10l37.4,84.7l-54.6,74.7l-92-10l-37.4-84.7L2760.7,566.4 M2757.4,559l-59.4,81.2
						l40.6,92.1l100.1,10.8l59.4-81.2l-40.6-92.1L2757.4,559L2757.4,559z"/>
				</g>
			</g>
			<g>
				<g>
					<path class="st3" d="M2962.8,137.4l92,10l37.4,84.7l-54.6,74.7l-92-10l-37.4-84.7L2962.8,137.4 M2959.6,130l-59.4,81.2
						l40.6,92.1l100.1,10.8l59.4-81.2l-40.6-92.1L2959.6,130L2959.6,130z"/>
				</g>
				<g>
					<polygon class="st3" points="3021,497.3 2921,486.5 2861.5,567.7 2902.2,659.8 3002.2,670.6 3061.7,589.4 					"/>
				</g>
			</g>
			<g>
				<g>
					<polygon class="st3" points="3223.2,68.3 3123.1,57.5 3063.7,138.7 3104.3,230.8 3204.4,241.6 3263.8,160.4 					"/>
				</g>
				<g>
					<polygon class="st3" points="3203.9,246.6 3103.8,235.8 3044.4,317 3085,409.1 3185.1,419.9 3244.5,338.7 					"/>
				</g>
				<g>
					<polygon class="st3" points="3184.5,424.9 3084.5,414 3025.1,495.3 3065.7,587.3 3165.8,598.2 3225.2,516.9 					"/>
				</g>
				<g>
					<path class="st3" d="M3068.5,599.7l92,10l37.4,84.7l-54.6,74.7l-92-10l-37.4-84.7L3068.5,599.7 M3065.2,592.3l-59.4,81.2
						l40.6,92.1l100.1,10.8l59.4-81.2l-40.6-92.1L3065.2,592.3L3065.2,592.3z"/>
				</g>
			</g>
			<g>
				<g>
					<polyline class="st3" points="3367.4,174.1 3267.3,163.3 3207.9,244.5 3248.6,336.6 					"/>
				</g>
				<g>
					<polyline class="st3" points="3248,341.6 3188.6,422.8 3229.3,514.9 3329.3,525.7 					"/>
				</g>
			</g>
		</g>
		<g>
			<g>
				<g>
					<polygon class="st3" points="68.2,448.2 -31.8,437.4 -91.3,518.6 -50.6,610.7 49.4,621.5 108.9,540.3 					"/>
				</g>
				<g>
					<path class="st3" d="M-47.9,623l92,10l37.4,84.7l-54.6,74.7l-92-10l-37.4-84.7L-47.9,623 M-51.1,615.6l-59.4,81.2l40.6,92.1
						l100.1,10.8l59.4-81.2l-40.6-92.1L-51.1,615.6L-51.1,615.6z"/>
				</g>
			</g>
			<g>
				<g>
					<polygon class="st3" points="212.4,554 112.4,543.2 53,624.4 93.6,716.5 193.7,727.3 253.1,646.1 					"/>
				</g>
			</g>
			<g>
				<g>
					<polygon class="st3" points="376,481.5 275.9,470.7 216.5,551.9 257.2,644 357.2,654.8 416.6,573.6 					"/>
				</g>
			</g>
			<g>
				<g>
					<polygon class="st3" points="520.2,587.3 420.2,576.5 360.8,657.7 401.4,749.8 501.4,760.6 560.9,679.4 					"/>
				</g>
			</g>
			<g>
				<g>
					<polygon class="st3" points="683.8,514.9 583.7,504 524.3,585.3 564.9,677.3 665,688.2 724.4,606.9 					"/>
				</g>
			</g>
			<g>
				<g>
					<polygon class="st3" points="828,620.7 727.9,609.8 668.5,691.1 709.2,783.1 809.2,794 868.6,712.7 					"/>
				</g>
			</g>
			<g>
				<g>
					<polygon class="st3" points="991.5,548.2 891.5,537.4 832.1,618.6 872.7,710.7 972.8,721.5 1032.2,640.3 					"/>
				</g>
			</g>
			<g>
				<g>
					<polygon class="st3" points="1135.8,654 1035.7,643.2 976.3,724.4 1016.9,816.5 1117,827.3 1176.4,746.1 					"/>
				</g>
			</g>
			<g>
				<g>
					<polygon class="st3" points="1299.3,581.5 1199.2,570.7 1139.8,651.9 1180.5,744 1280.5,754.8 1339.9,673.6 					"/>
				</g>
			</g>
			<g>
				<g>
					<polygon class="st3" points="1607.1,614.9 1507,604 1447.6,685.3 1488.2,777.3 1588.3,788.2 1647.7,706.9 					"/>
				</g>
			</g>
			<g>
				<g>
					<polygon class="st3" points="1914.8,648.2 1814.8,637.4 1755.4,718.6 1796,810.6 1896.1,821.5 1955.5,740.3 					"/>
				</g>
			</g>
		</g>
	</g>
	<polygon class="st3" points="1953.5,291.6 1994.1,383.6 1934.7,464.9 1934.2,469.8 1974.8,561.9 1978.3,564.8 2078.4,575.6 
		2082.5,573.6 2141.9,492.3 2241.9,503.2 2282.6,595.2 2286.1,598.1 2386.2,609 2390.2,606.9 2449.6,525.7 2549.7,536.5 
		2590.3,628.6 2530.9,709.8 2530.4,714.8 2571,806.9 2574.6,809.8 2674.6,820.6 2678.7,818.6 2738.1,737.3 2838.2,748.2 2842.2,746 
		2901.6,664.8 3001.7,675.6 3042.3,767.7 3045.9,770.7 3145.9,781.5 3150,779.3 3209.4,698.1 3210,693.1 3169.3,601.1 3216.8,536.2 
		3216.8,698.9 3216.8,829.5 0,829.5 0,801.5 29.6,804.7 33.7,802.7 93.1,721.4 93.6,716.5 53,624.4 112.4,543.2 112.9,538.1 
		72.3,446 131.7,364.8 231.8,375.7 272.4,467.7 275.9,470.7 376,481.5 380.1,479.4 439.5,398.1 440,393.2 399.4,301.1 424.3,267 
		1968.3,267 1954,286.6 	"/>
</g>
</svg>
