<?xml version="1.0"?>
<svg xmlns="http://www.w3.org/2000/svg" xmlns:xlink="http://www.w3.org/1999/xlink" version="1.1" id="Capa_1" x="0px" y="0px" viewBox="0 0 512 512" style="enable-background:new 0 0 512 512;" xml:space="preserve" width="20px" height="20px" class=""><g><g>
	<g>
		<g>
			<path d="M108.928,108.928c6.205,6.241,16.415,6.241,22.625,0c6.211-6.175,6.211-16.384,0-22.625l-22.625-22.625     c-6.211-6.175-16.415-6.175-22.625,0c-6.211,6.241-6.211,16.451,0,22.625L108.928,108.928z" data-original="#000000" class="active-path" data-old_color="#000000" fill="#FFBA19"/>
			<path d="M64,240.067c0-8.801-7.199-16-16-16H16c-8.801,0-16,7.199-16,16c0,8.801,7.199,16,16,16h32     C56.801,256.067,64,248.863,64,240.067z" data-original="#000000" class="active-path" data-old_color="#000000" fill="#FFBA19"/>
			<path d="M86.369,380.513l-22.656,22.625c-6.205,6.241-6.205,16.451,0,22.625c6.211,6.241,16.415,6.241,22.625,0l22.656-22.625     c6.211-6.175,6.211-16.384,0-22.625C102.784,374.303,92.575,374.303,86.369,380.513z" data-original="#000000" class="active-path" data-old_color="#000000" fill="#FFBA19"/>
			<path d="M240.097,448c-8.801,0-16,7.199-16,16l-0.031,32c0,8.801,7.199,16,16,16c8.766,0.067,16-7.137,16-15.933L256.097,464     C256.097,455.199,248.894,448,240.097,448z" data-original="#000000" class="active-path" data-old_color="#000000" fill="#FFBA19"/>
			<path d="M272.031,64c8.771,0.067,16-7.137,16-15.933L288.062,16c0.005-8.801-7.26-16-15.995-16c-8.771,0-15.969,7.199-16,16     l-0.031,32C256.031,56.801,263.23,64,272.031,64z" data-original="#000000" class="active-path" data-old_color="#000000" fill="#FFBA19"/>
			<path d="M403.134,403.072c-6.241-6.175-16.415-6.241-22.625,0c-6.144,6.175-6.144,16.384,0.067,22.625l22.559,22.625     c6.211,6.241,16.384,6.241,22.625,0c6.241-6.175,6.241-16.384,0-22.559L403.134,403.072z" data-original="#000000" class="active-path" data-old_color="#000000" fill="#FFBA19"/>
			<path d="M496.067,256H464c-8.735,0-16,7.199-16,15.933c0,8.801,7.265,16,16,16L496,288c8.735,0,16-7.199,16-16     C512.031,263.199,504.801,256,496.067,256z" data-original="#000000" class="active-path" data-old_color="#000000" fill="#FFBA19"/>
			<path d="M425.667,131.487l22.625-22.559c6.205-6.175,6.241-16.384,0.031-22.625c-6.175-6.241-16.384-6.241-22.559,0     l-22.687,22.625c-6.175,6.241-6.175,16.384,0,22.625C409.247,137.728,419.425,137.728,425.667,131.487z" data-original="#000000" class="active-path" data-old_color="#000000" fill="#FFBA19"/>
			<path d="M256.067,96c-88.351,0-160,71.613-160,160s71.649,160,160,160c88.387,0,160-71.613,160-160S344.448,96,256.067,96z" data-original="#000000" class="active-path" data-old_color="#000000" fill="#FFBA19"/>
		</g>
	</g>
</g></g> </svg>
